<svg xmlns="http://www.w3.org/2000/svg" width="800" height="150" viewBox="0 0 800 150" role="img" aria-label="DomluvSchůzku">
  <!-- Ikona kalendáře s fajfkou (černá) -->
  <g transform="translate(10,10) scale(1.8)" fill="#0f0f0f">
    <!-- tělo kalendáře -->
    <path fill-rule="evenodd" d="M7,1 C6.4477,1 6,1.4477 6,2V3H5C3.343,3 2,4.343 2,6v14c0,1.657 1.343,3 3,3h14c1.657,0 3-1.343 3-3V6c0-1.657-1.343-3-3-3h-1V2c0-.552-.448-1-1-1-.552,0-1,.448-1,1v1H8V2C8,1.447 7.552,1 7,1Zm12,5V5H8v1c0,.552-.448,1-1,1s-1-.448-1-1V5H5C4.448,5 4,5.448 4,6v3h16V6c0-.552-.448-1-1-1h-1v1c0,.552-.448,1-1,1s-1-.448-1-1Z"/>
    <!-- kolečko s fajfkou -->
    <path d="M15.293,17.707c.391-.391 1.024-.391 1.414,0l.641,.641 1.899-1.899c.391-.391 1.024-.391 1.414,0 .391,.391 .391,1.024 0,1.414l-2.54,2.54c-.086,.086-.185,.154-.289,.202-.383,.224-.883,.172-1.212-.157l-1.327-1.327c-.391-.391-.391-1.024 0-1.414Z"/>
    <path fill-rule="evenodd" d="M24,18c0,3.314-2.686,6-6,6s-6-2.686-6-6 2.686-6 6-6 6,2.686 6,6Zm-10.018,0c0,2.219 1.799,4.018 4.018,4.018 2.219,0 4.018-1.799 4.018-4.018 0-2.219-1.799-4.018-4.018-4.018-2.219,0-4.018,1.799-4.018,4.018Z"/>
  </g>

  <!-- Text logo: DomluvSchůzku -->
  <!-- Doporučený font: Maven Pro; fallback sans-serif -->
  <g font-family="Maven Pro, system-ui, -apple-system, Segoe UI, Roboto, Arial, sans-serif" font-size="88" dominant-baseline="middle">
    <text x="145" y="75" fill="#0f0f0f" font-weight="600">Domluv</text>
    <text x="405" y="75" fill="#1fbfb5" font-weight="600">Schůzku</text>
  </g>
</svg>
