<?xml version="1.0" encoding="UTF-8" standalone="no"?>
<svg
   width="800"
   height="150"
   viewBox="0 0 800 150"
   role="img"
   aria-label="DomluvSchůzku"
   version="1.1"
   id="svg4"
   xmlns="http://www.w3.org/2000/svg"
   xmlns:svg="http://www.w3.org/2000/svg">
  <defs
     id="defs4" />
  <!-- Ikona kalendáře s fajfkou (černá) -->
  <!-- Text logo: DomluvSchůzku -->
  <!-- Doporučený font: Maven Pro; fallback sans-serif -->
  <text
     x="138.62804"
     y="75.743393"
     fill="#0f0f0f"
     font-weight="600"
     id="text3"
     style="font-size:88px;font-family:'Maven Pro', system-ui, '-apple-system', 'Segoe UI', Roboto, Arial, sans-serif;dominant-baseline:middle">Domluv</text>
  <text
     x="453.00211"
     y="75.816925"
     fill="#1fbfb5"
     font-weight="600"
     id="text4"
     style="font-size:88px;font-family:'Maven Pro', system-ui, '-apple-system', 'Segoe UI', Roboto, Arial, sans-serif;dominant-baseline:middle">Schůzku</text>
  <path
     style="fill:#1fbfb5;fill-opacity:1;stroke-width:0.300377"
     d="m 36.317969,116.37931 c -4.763001,-1.64701 -8.288177,-5.58922 -9.155997,-10.23917 -0.41098,-2.2021 -0.41098,-64.85022 0,-67.052313 0.63665,-3.411294 3.028338,-6.947343 5.943846,-8.787822 2.275916,-1.436723 4.538162,-1.991662 8.119143,-1.991662 h 3.269946 l 0.167931,-3.047588 c 0.179669,-3.2606 0.459922,-3.941547 2.137748,-5.194226 1.133843,-0.846535 3.437327,-0.845135 4.593234,0.0028 1.450252,1.063848 1.898395,2.352529 1.898917,5.460532 l 4.67e-4,2.778489 h 18.022633 18.022634 v -2.8685 c 0,-3.12664 0.328477,-4.146879 1.676546,-5.207269 1.695741,-1.333871 4.100564,-1.084382 5.708243,0.592204 0.840425,0.876444 0.879636,1.04387 0.97649,4.169488 l 0.100903,3.256379 3.954187,0.103943 c 3.82311,0.100498 4.02942,0.139872 6.22352,1.187724 2.57105,1.22788 4.82356,3.306983 6.07613,5.608358 1.61068,2.959345 1.7079,4.066037 1.71274,19.495318 l 0.004,14.172368 -3.0974,-1.602614 c -1.70357,-0.881439 -3.66353,-1.772232 -4.35547,-1.979543 -1.01171,-0.303114 -1.25807,-0.514672 -1.25807,-1.080325 V 63.452478 H 71.315837 35.570948 v 20.831797 20.831795 l 0.675849,0.99303 c 0.371717,0.54616 1.057324,1.27579 1.523572,1.6214 0.830749,0.61579 1.159656,0.63013 16.426866,0.7161 l 15.579142,0.0877 1.082584,1.93583 c 0.595419,1.06472 1.889613,2.95141 2.875985,4.19265 l 1.793402,2.25681 -18.852284,-0.01 c -17.090859,-0.009 -18.992979,-0.0584 -20.358095,-0.5305 z M 107.06073,47.576906 c 0,-7.24701 -0.0197,-7.494009 -0.67585,-8.458038 -1.29947,-1.909313 -2.03032,-2.223582 -5.46691,-2.350795 l -3.114031,-0.115272 -0.102546,3.318279 c -0.09869,3.193245 -0.135542,3.352687 -0.978133,4.231391 -1.607679,1.676585 -4.012502,1.926074 -5.708243,0.592203 -1.348069,-1.06039 -1.676546,-2.080629 -1.676546,-5.207269 v -2.8685 H 71.315837 53.293204 l -4.67e-4,2.778489 c -5.22e-4,3.108003 -0.448665,4.396684 -1.898917,5.460532 -1.155907,0.847928 -3.459391,0.849329 -4.593234,0.0028 -1.681458,-1.25539 -1.957926,-1.930846 -2.139572,-5.227335 l -0.169756,-3.080696 -2.950019,0.118489 c -3.254569,0.13072 -4.015111,0.467965 -5.294442,2.347691 -0.656112,0.964029 -0.675849,1.211028 -0.675849,8.458038 v 7.46501 h 35.744889 35.744893 z"
     id="path1" />
  <path
     style="fill:#1fbfb5;fill-opacity:1;stroke-width:0.300377"
     d="m 92.64262,120.83847 c -3.514873,-0.74965 -6.286198,-1.92747 -9.337513,-3.96846 -7.4385,-4.97553 -11.735104,-13.04074 -11.735104,-22.028113 0,-10.114697 5.592033,-19.146878 14.614507,-23.605167 4.41931,-2.183721 6.928889,-2.769507 11.8649,-2.769507 4.75052,0 7.32971,0.56878 11.41434,2.51717 7.72115,3.683032 13.10661,10.780902 14.74261,19.430324 0.58713,3.10411 0.21266,9.016815 -0.7655,12.086793 -4.23657,13.29658 -17.4749,21.17854 -30.79824,18.33696 z m 11.27741,-8.99064 c 12.52031,-4.25702 16.25434,-20.284363 6.90234,-29.626476 -3.59724,-3.59344 -7.63072,-5.251901 -12.77296,-5.251901 -5.145404,0 -9.181131,1.660082 -12.767585,5.251901 -2.442046,2.445697 -3.820043,4.852997 -4.66167,8.143725 -3.054329,11.942311 6.346563,23.272551 18.630764,22.454361 1.293921,-0.0862 3.281311,-0.49975 4.669111,-0.97161 z"
     id="path4" />
  <path
     style="fill:#1fbfb5;fill-opacity:1;stroke-width:0.212399"
     d="m 93.270844,106.54934 c -0.930073,-0.47776 -7.743807,-7.302658 -8.092836,-8.106098 -1.189015,-2.737009 0.903116,-6.007082 3.843221,-6.007082 1.493004,0 2.397695,0.503188 4.301792,2.392653 l 1.751368,1.737909 4.514396,-4.483379 c 2.482915,-2.465858 4.848925,-4.656956 5.257795,-4.869107 0.92888,-0.481971 2.8339,-0.495458 3.73855,-0.02647 0.76947,0.398912 1.93866,1.670978 2.22284,2.41843 0.30016,0.789483 0.23766,2.324002 -0.13069,3.208481 -0.46967,1.127774 -12.17684,12.858083 -13.523098,13.549823 -1.179161,0.60589 -2.90386,0.68798 -3.883338,0.18484 z"
     id="path5" />
</svg>
